<?xml version="1.0" encoding="UTF-8"?>
<svg version="1.1" xmlns="http://www.w3.org/2000/svg" width="588" height="735">
<path d="M0 0 C194.04 0 388.08 0 588 0 C588 242.55 588 485.1 588 735 C393.96 735 199.92 735 0 735 C0 492.45 0 249.9 0 0 Z " fill="#FDFDFD" transform="translate(0,0)"/>
<path d="M0 0 C4.62 0 9.24 0 14 0 C14 4.62 14 9.24 14 14 C18.62 14 23.24 14 28 14 C28 23.57 28 33.14 28 43 C23.38 43 18.76 43 14 43 C14 52.57 14 62.14 14 72 C9.38 72 4.76 72 0 72 C0 76.62 0 81.24 0 86 C4.62 86 9.24 86 14 86 C14 90.62 14 95.24 14 100 C18.62 100 23.24 100 28 100 C28 90.76 28 81.52 28 72 C32.95 72 37.9 72 43 72 C43 81.24 43 90.48 43 100 C47.62 100 52.24 100 57 100 C57 95.38 57 90.76 57 86 C61.95 86 66.9 86 72 86 C72 71.81 72 57.62 72 43 C76.62 43 81.24 43 86 43 C86 47.62 86 52.24 86 57 C90.62 57 95.24 57 100 57 C100 61.95 100 66.9 100 72 C95.38 72 90.76 72 86 72 C86 76.62 86 81.24 86 86 C90.62 86 95.24 86 100 86 C100 90.62 100 95.24 100 100 C104.95 100 109.9 100 115 100 C115 104.95 115 109.9 115 115 C119.62 115 124.24 115 129 115 C129 119.62 129 124.24 129 129 C124.38 129 119.76 129 115 129 C115 138.57 115 148.14 115 158 C110.05 158 105.1 158 100 158 C100 162.62 100 167.24 100 172 C104.95 172 109.9 172 115 172 C115 176.95 115 181.9 115 187 C119.62 187 124.24 187 129 187 C129 196.57 129 206.14 129 216 C119.43 216 109.86 216 100 216 C100 220.62 100 225.24 100 230 C104.95 230 109.9 230 115 230 C115 234.62 115 239.24 115 244 C119.62 244 124.24 244 129 244 C129 239.38 129 234.76 129 230 C133.95 230 138.9 230 144 230 C144 220.43 144 210.86 144 201 C153.24 201 162.48 201 172 201 C172 196.38 172 191.76 172 187 C181.57 187 191.14 187 201 187 C201 177.43 201 167.86 201 158 C196.38 158 191.76 158 187 158 C187 153.38 187 148.76 187 144 C182.05 144 177.1 144 172 144 C172 139.05 172 134.1 172 129 C176.95 129 181.9 129 187 129 C187 124.38 187 119.76 187 115 C205.81 115 224.62 115 244 115 C244 119.62 244 124.24 244 129 C239.38 129 234.76 129 230 129 C230 133.95 230 138.9 230 144 C225.38 144 220.76 144 216 144 C216 148.62 216 153.24 216 158 C225.24 158 234.48 158 244 158 C244 167.57 244 177.14 244 187 C239.38 187 234.76 187 230 187 C230 191.62 230 196.24 230 201 C215.81 201 201.62 201 187 201 C187 210.57 187 220.14 187 230 C191.62 230 196.24 230 201 230 C201 225.38 201 220.76 201 216 C205.95 216 210.9 216 216 216 C216 220.62 216 225.24 216 230 C225.24 230 234.48 230 244 230 C244 234.62 244 239.24 244 244 C225.19 244 206.38 244 187 244 C187 248.95 187 253.9 187 259 C177.43 259 167.86 259 158 259 C158 254.05 158 249.1 158 244 C153.38 244 148.76 244 144 244 C144 248.95 144 253.9 144 259 C134.43 259 124.86 259 115 259 C115 263.62 115 268.24 115 273 C119.62 273 124.24 273 129 273 C129 277.95 129 282.9 129 288 C138.57 288 148.14 288 158 288 C158 283.05 158 278.1 158 273 C162.62 273 167.24 273 172 273 C172 282.57 172 292.14 172 302 C176.95 302 181.9 302 187 302 C187 311.57 187 321.14 187 331 C196.57 331 206.14 331 216 331 C216 335.62 216 340.24 216 345 C225.24 345 234.48 345 244 345 C244 349.95 244 354.9 244 360 C239.38 360 234.76 360 230 360 C230 364.62 230 369.24 230 374 C220.43 374 210.86 374 201 374 C201 378.62 201 383.24 201 388 C205.95 388 210.9 388 216 388 C216 397.57 216 407.14 216 417 C220.62 417 225.24 417 230 417 C230 421.95 230 426.9 230 432 C215.81 432 201.62 432 187 432 C187 436.62 187 441.24 187 446 C201.19 446 215.38 446 230 446 C230 450.62 230 455.24 230 460 C225.38 460 220.76 460 216 460 C216 469.57 216 479.14 216 489 C206.43 489 196.86 489 187 489 C187 484.38 187 479.76 187 475 C182.05 475 177.1 475 172 475 C172 484.57 172 494.14 172 504 C176.95 504 181.9 504 187 504 C187 508.62 187 513.24 187 518 C191.62 518 196.24 518 201 518 C201 513.38 201 508.76 201 504 C210.57 504 220.14 504 230 504 C230 508.62 230 513.24 230 518 C234.62 518 239.24 518 244 518 C244 522.62 244 527.24 244 532 C206.05 532 168.1 532 129 532 C129 527.38 129 522.76 129 518 C133.95 518 138.9 518 144 518 C144 503.81 144 489.62 144 475 C134.43 475 124.86 475 115 475 C115 470.05 115 465.1 115 460 C105.43 460 95.86 460 86 460 C86 464.95 86 469.9 86 475 C90.62 475 95.24 475 100 475 C100 479.62 100 484.24 100 489 C85.81 489 71.62 489 57 489 C57 493.95 57 498.9 57 504 C61.95 504 66.9 504 72 504 C72 508.62 72 513.24 72 518 C76.62 518 81.24 518 86 518 C86 522.62 86 527.24 86 532 C76.43 532 66.86 532 57 532 C57 527.38 57 522.76 57 518 C47.43 518 37.86 518 28 518 C28 522.62 28 527.24 28 532 C23.38 532 18.76 532 14 532 C14 517.81 14 503.62 14 489 C9.38 489 4.76 489 0 489 C0 484.38 0 479.76 0 475 C-4.95 475 -9.9 475 -15 475 C-15 470.05 -15 465.1 -15 460 C-10.05 460 -5.1 460 0 460 C0 450.76 0 441.52 0 432 C-4.95 432 -9.9 432 -15 432 C-15 436.62 -15 441.24 -15 446 C-19.62 446 -24.24 446 -29 446 C-29 441.38 -29 436.76 -29 432 C-33.95 432 -38.9 432 -44 432 C-44 427.05 -44 422.1 -44 417 C-48.62 417 -53.24 417 -58 417 C-58 426.57 -58 436.14 -58 446 C-62.62 446 -67.24 446 -72 446 C-72 450.62 -72 455.24 -72 460 C-67.38 460 -62.76 460 -58 460 C-58 464.95 -58 469.9 -58 475 C-53.38 475 -48.76 475 -44 475 C-44 479.62 -44 484.24 -44 489 C-34.43 489 -24.86 489 -15 489 C-15 493.95 -15 498.9 -15 504 C-19.62 504 -24.24 504 -29 504 C-29 508.62 -29 513.24 -29 518 C-33.95 518 -38.9 518 -44 518 C-44 513.38 -44 508.76 -44 504 C-62.81 504 -81.62 504 -101 504 C-101 513.24 -101 522.48 -101 532 C-110.57 532 -120.14 532 -130 532 C-130 527.38 -130 522.76 -130 518 C-134.62 518 -139.24 518 -144 518 C-144 513.38 -144 508.76 -144 504 C-148.95 504 -153.9 504 -159 504 C-159 494.43 -159 484.86 -159 475 C-163.62 475 -168.24 475 -173 475 C-173 465.43 -173 455.86 -173 446 C-168.38 446 -163.76 446 -159 446 C-159 441.38 -159 436.76 -159 432 C-154.05 432 -149.1 432 -144 432 C-144 441.24 -144 450.48 -144 460 C-139.38 460 -134.76 460 -130 460 C-130 464.95 -130 469.9 -130 475 C-125.38 475 -120.76 475 -116 475 C-116 479.62 -116 484.24 -116 489 C-111.05 489 -106.1 489 -101 489 C-101 484.38 -101 479.76 -101 475 C-96.38 475 -91.76 475 -87 475 C-87 460.81 -87 446.62 -87 432 C-91.62 432 -96.24 432 -101 432 C-101 427.05 -101 422.1 -101 417 C-105.95 417 -110.9 417 -116 417 C-116 426.57 -116 436.14 -116 446 C-120.62 446 -125.24 446 -130 446 C-130 417.62 -130 389.24 -130 360 C-125.38 360 -120.76 360 -116 360 C-116 350.43 -116 340.86 -116 331 C-120.62 331 -125.24 331 -130 331 C-130 335.62 -130 340.24 -130 345 C-134.62 345 -139.24 345 -144 345 C-144 335.43 -144 325.86 -144 316 C-148.95 316 -153.9 316 -159 316 C-159 325.57 -159 335.14 -159 345 C-163.62 345 -168.24 345 -173 345 C-173 340.38 -173 335.76 -173 331 C-182.57 331 -192.14 331 -202 331 C-202 335.62 -202 340.24 -202 345 C-206.62 345 -211.24 345 -216 345 C-216 335.43 -216 325.86 -216 316 C-225.57 316 -235.14 316 -245 316 C-245 306.76 -245 297.52 -245 288 C-240.38 288 -235.76 288 -231 288 C-231 278.43 -231 268.86 -231 259 C-226.05 259 -221.1 259 -216 259 C-216 254.05 -216 249.1 -216 244 C-225.57 244 -235.14 244 -245 244 C-245 239.38 -245 234.76 -245 230 C-240.38 230 -235.76 230 -231 230 C-231 220.43 -231 210.86 -231 201 C-240.57 201 -250.14 201 -260 201 C-260 191.43 -260 181.86 -260 172 C-255.05 172 -250.1 172 -245 172 C-245 176.95 -245 181.9 -245 187 C-235.43 187 -225.86 187 -216 187 C-216 177.43 -216 167.86 -216 158 C-220.95 158 -225.9 158 -231 158 C-231 143.81 -231 129.62 -231 115 C-216.81 115 -202.62 115 -188 115 C-188 119.62 -188 124.24 -188 129 C-183.05 129 -178.1 129 -173 129 C-173 133.95 -173 138.9 -173 144 C-163.43 144 -153.86 144 -144 144 C-144 139.05 -144 134.1 -144 129 C-134.76 129 -125.52 129 -116 129 C-116 133.95 -116 138.9 -116 144 C-111.05 144 -106.1 144 -101 144 C-101 139.05 -101 134.1 -101 129 C-96.38 129 -91.76 129 -87 129 C-87 114.81 -87 100.62 -87 86 C-91.62 86 -96.24 86 -101 86 C-101 76.43 -101 66.86 -101 57 C-105.95 57 -110.9 57 -116 57 C-116 61.95 -116 66.9 -116 72 C-120.62 72 -125.24 72 -130 72 C-130 62.43 -130 52.86 -130 43 C-115.81 43 -101.62 43 -87 43 C-87 52.57 -87 62.14 -87 72 C-82.05 72 -77.1 72 -72 72 C-72 81.24 -72 90.48 -72 100 C-67.38 100 -62.76 100 -58 100 C-58 95.38 -58 90.76 -58 86 C-53.38 86 -48.76 86 -44 86 C-44 81.38 -44 76.76 -44 72 C-39.05 72 -34.1 72 -29 72 C-29 67.05 -29 62.1 -29 57 C-24.38 57 -19.76 57 -15 57 C-15 52.38 -15 47.76 -15 43 C-29.19 43 -43.38 43 -58 43 C-58 38.05 -58 33.1 -58 28 C-48.43 28 -38.86 28 -29 28 C-29 23.38 -29 18.76 -29 14 C-19.43 14 -9.86 14 0 14 C0 9.38 0 4.76 0 0 Z " fill="#010101" transform="translate(316,26)"/>
<path d="M0 0 C18.81 0 37.62 0 57 0 C57 4.62 57 9.24 57 14 C52.38 14 47.76 14 43 14 C43 18.95 43 23.9 43 29 C38.38 29 33.76 29 29 29 C29 33.62 29 38.24 29 43 C38.24 43 47.48 43 57 43 C57 52.57 57 62.14 57 72 C52.38 72 47.76 72 43 72 C43 76.62 43 81.24 43 86 C28.81 86 14.62 86 0 86 C0 95.57 0 105.14 0 115 C4.62 115 9.24 115 14 115 C14 110.38 14 105.76 14 101 C18.95 101 23.9 101 29 101 C29 105.62 29 110.24 29 115 C38.24 115 47.48 115 57 115 C57 119.62 57 124.24 57 129 C38.19 129 19.38 129 0 129 C0 133.95 0 138.9 0 144 C-9.57 144 -19.14 144 -29 144 C-29 139.05 -29 134.1 -29 129 C-33.62 129 -38.24 129 -43 129 C-43 133.95 -43 138.9 -43 144 C-52.57 144 -62.14 144 -72 144 C-72 148.62 -72 153.24 -72 158 C-67.38 158 -62.76 158 -58 158 C-58 162.95 -58 167.9 -58 173 C-48.43 173 -38.86 173 -29 173 C-29 168.05 -29 163.1 -29 158 C-24.38 158 -19.76 158 -15 158 C-15 167.57 -15 177.14 -15 187 C-10.05 187 -5.1 187 0 187 C0 196.57 0 206.14 0 216 C9.57 216 19.14 216 29 216 C29 220.62 29 225.24 29 230 C38.24 230 47.48 230 57 230 C57 234.95 57 239.9 57 245 C52.38 245 47.76 245 43 245 C43 249.62 43 254.24 43 259 C33.43 259 23.86 259 14 259 C14 263.62 14 268.24 14 273 C18.95 273 23.9 273 29 273 C29 282.57 29 292.14 29 302 C33.62 302 38.24 302 43 302 C43 306.95 43 311.9 43 317 C28.81 317 14.62 317 0 317 C0 321.62 0 326.24 0 331 C14.19 331 28.38 331 43 331 C43 335.62 43 340.24 43 345 C38.38 345 33.76 345 29 345 C29 354.57 29 364.14 29 374 C19.43 374 9.86 374 0 374 C0 369.38 0 364.76 0 360 C-4.95 360 -9.9 360 -15 360 C-15 369.57 -15 379.14 -15 389 C-10.05 389 -5.1 389 0 389 C0 393.62 0 398.24 0 403 C4.62 403 9.24 403 14 403 C14 398.38 14 393.76 14 389 C23.57 389 33.14 389 43 389 C43 393.62 43 398.24 43 403 C47.62 403 52.24 403 57 403 C57 407.62 57 412.24 57 417 C19.05 417 -18.9 417 -58 417 C-58 412.38 -58 407.76 -58 403 C-53.05 403 -48.1 403 -43 403 C-43 388.81 -43 374.62 -43 360 C-52.57 360 -62.14 360 -72 360 C-72 355.05 -72 350.1 -72 345 C-81.57 345 -91.14 345 -101 345 C-101 349.95 -101 354.9 -101 360 C-96.38 360 -91.76 360 -87 360 C-87 364.62 -87 369.24 -87 374 C-101.19 374 -115.38 374 -130 374 C-130 378.95 -130 383.9 -130 389 C-125.05 389 -120.1 389 -115 389 C-115 393.62 -115 398.24 -115 403 C-110.38 403 -105.76 403 -101 403 C-101 407.62 -101 412.24 -101 417 C-110.57 417 -120.14 417 -130 417 C-130 412.38 -130 407.76 -130 403 C-139.57 403 -149.14 403 -159 403 C-159 407.62 -159 412.24 -159 417 C-163.62 417 -168.24 417 -173 417 C-173 402.81 -173 388.62 -173 374 C-177.62 374 -182.24 374 -187 374 C-187 369.38 -187 364.76 -187 360 C-191.95 360 -196.9 360 -202 360 C-202 355.05 -202 350.1 -202 345 C-197.05 345 -192.1 345 -187 345 C-187 335.76 -187 326.52 -187 317 C-177.76 317 -168.52 317 -159 317 C-159 331.19 -159 345.38 -159 360 C-149.43 360 -139.86 360 -130 360 C-130 355.05 -130 350.1 -130 345 C-134.62 345 -139.24 345 -144 345 C-144 335.76 -144 326.52 -144 317 C-134.43 317 -124.86 317 -115 317 C-115 312.05 -115 307.1 -115 302 C-110.38 302 -105.76 302 -101 302 C-101 287.81 -101 273.62 -101 259 C-96.38 259 -91.76 259 -87 259 C-87 254.38 -87 249.76 -87 245 C-77.43 245 -67.86 245 -58 245 C-58 240.05 -58 235.1 -58 230 C-62.62 230 -67.24 230 -72 230 C-72 225.38 -72 220.76 -72 216 C-76.95 216 -81.9 216 -87 216 C-87 211.05 -87 206.1 -87 201 C-91.62 201 -96.24 201 -101 201 C-101 205.95 -101 210.9 -101 216 C-105.62 216 -110.24 216 -115 216 C-115 211.05 -115 206.1 -115 201 C-119.95 201 -124.9 201 -130 201 C-130 205.95 -130 210.9 -130 216 C-139.57 216 -149.14 216 -159 216 C-159 220.62 -159 225.24 -159 230 C-163.62 230 -168.24 230 -173 230 C-173 234.95 -173 239.9 -173 245 C-177.62 245 -182.24 245 -187 245 C-187 249.62 -187 254.24 -187 259 C-191.95 259 -196.9 259 -202 259 C-202 249.43 -202 239.86 -202 230 C-197.05 230 -192.1 230 -187 230 C-187 225.38 -187 220.76 -187 216 C-182.38 216 -177.76 216 -173 216 C-173 211.05 -173 206.1 -173 201 C-177.62 201 -182.24 201 -187 201 C-187 196.38 -187 191.76 -187 187 C-191.95 187 -196.9 187 -202 187 C-202 182.38 -202 177.76 -202 173 C-197.05 173 -192.1 173 -187 173 C-187 158.48 -187 143.96 -187 129 C-182.38 129 -177.76 129 -173 129 C-173 133.95 -173 138.9 -173 144 C-168.38 144 -163.76 144 -159 144 C-159 158.19 -159 172.38 -159 187 C-149.43 187 -139.86 187 -130 187 C-130 182.38 -130 177.76 -130 173 C-134.62 173 -139.24 173 -144 173 C-144 163.43 -144 153.86 -144 144 C-134.43 144 -124.86 144 -115 144 C-115 139.05 -115 134.1 -115 129 C-110.38 129 -105.76 129 -101 129 C-101 119.76 -101 110.52 -101 101 C-96.38 101 -91.76 101 -87 101 C-87 105.62 -87 110.24 -87 115 C-82.05 115 -77.1 115 -72 115 C-72 119.62 -72 124.24 -72 129 C-67.38 129 -62.76 129 -58 129 C-58 124.38 -58 119.76 -58 115 C-53.05 115 -48.1 115 -43 115 C-43 105.43 -43 95.86 -43 86 C-33.76 86 -24.52 86 -15 86 C-15 81.38 -15 76.76 -15 72 C-5.43 72 4.14 72 14 72 C14 62.43 14 52.86 14 43 C9.38 43 4.76 43 0 43 C0 38.38 0 33.76 0 29 C-4.95 29 -9.9 29 -15 29 C-15 24.05 -15 19.1 -15 14 C-10.05 14 -5.1 14 0 14 C0 9.38 0 4.76 0 0 Z " fill="#010101" transform="translate(503,141)"/>
<path d="M0 0 C4.62 0 9.24 0 14 0 C14 4.62 14 9.24 14 14 C18.95 14 23.9 14 29 14 C29 23.57 29 33.14 29 43 C33.62 43 38.24 43 43 43 C43 52.57 43 62.14 43 72 C47.95 72 52.9 72 58 72 C58 76.62 58 81.24 58 86 C67.24 86 76.48 86 86 86 C86 90.95 86 95.9 86 101 C81.38 101 76.76 101 72 101 C72 110.24 72 119.48 72 129 C67.38 129 62.76 129 58 129 C58 133.95 58 138.9 58 144 C48.43 144 38.86 144 29 144 C29 153.57 29 163.14 29 173 C33.62 173 38.24 173 43 173 C43 177.62 43 182.24 43 187 C33.43 187 23.86 187 14 187 C14 172.81 14 158.62 14 144 C9.38 144 4.76 144 0 144 C0 139.05 0 134.1 0 129 C-4.62 129 -9.24 129 -14 129 C-14 143.52 -14 158.04 -14 173 C-18.95 173 -23.9 173 -29 173 C-29 177.62 -29 182.24 -29 187 C-24.05 187 -19.1 187 -14 187 C-14 191.62 -14 196.24 -14 201 C-9.38 201 -4.76 201 0 201 C0 205.95 0 210.9 0 216 C-4.62 216 -9.24 216 -14 216 C-14 220.62 -14 225.24 -14 230 C-18.95 230 -23.9 230 -29 230 C-29 239.57 -29 249.14 -29 259 C-24.05 259 -19.1 259 -14 259 C-14 254.38 -14 249.76 -14 245 C-9.38 245 -4.76 245 0 245 C0 240.05 0 235.1 0 230 C4.62 230 9.24 230 14 230 C14 225.38 14 220.76 14 216 C23.57 216 33.14 216 43 216 C43 211.05 43 206.1 43 201 C47.95 201 52.9 201 58 201 C58 205.95 58 210.9 58 216 C62.62 216 67.24 216 72 216 C72 211.05 72 206.1 72 201 C76.62 201 81.24 201 86 201 C86 205.95 86 210.9 86 216 C90.95 216 95.9 216 101 216 C101 220.62 101 225.24 101 230 C105.62 230 110.24 230 115 230 C115 234.95 115 239.9 115 245 C105.43 245 95.86 245 86 245 C86 249.62 86 254.24 86 259 C81.38 259 76.76 259 72 259 C72 273.19 72 287.38 72 302 C67.38 302 62.76 302 58 302 C58 306.95 58 311.9 58 317 C48.43 317 38.86 317 29 317 C29 326.24 29 335.48 29 345 C33.62 345 38.24 345 43 345 C43 349.95 43 354.9 43 360 C33.43 360 23.86 360 14 360 C14 345.81 14 331.62 14 317 C-0.19 317 -14.38 317 -29 317 C-29 321.62 -29 326.24 -29 331 C-33.62 331 -38.24 331 -43 331 C-43 326.38 -43 321.76 -43 317 C-47.95 317 -52.9 317 -58 317 C-58 312.05 -58 307.1 -58 302 C-62.62 302 -67.24 302 -72 302 C-72 311.57 -72 321.14 -72 331 C-76.62 331 -81.24 331 -86 331 C-86 335.62 -86 340.24 -86 345 C-81.38 345 -76.76 345 -72 345 C-72 349.95 -72 354.9 -72 360 C-67.38 360 -62.76 360 -58 360 C-58 364.62 -58 369.24 -58 374 C-48.43 374 -38.86 374 -29 374 C-29 378.95 -29 383.9 -29 389 C-33.62 389 -38.24 389 -43 389 C-43 393.62 -43 398.24 -43 403 C-47.95 403 -52.9 403 -58 403 C-58 398.38 -58 393.76 -58 389 C-76.81 389 -95.62 389 -115 389 C-115 398.24 -115 407.48 -115 417 C-124.57 417 -134.14 417 -144 417 C-144 412.38 -144 407.76 -144 403 C-148.62 403 -153.24 403 -158 403 C-158 398.38 -158 393.76 -158 389 C-162.95 389 -167.9 389 -173 389 C-173 379.43 -173 369.86 -173 360 C-177.62 360 -182.24 360 -187 360 C-187 350.43 -187 340.86 -187 331 C-182.38 331 -177.76 331 -173 331 C-173 326.38 -173 321.76 -173 317 C-168.05 317 -163.1 317 -158 317 C-158 326.24 -158 335.48 -158 345 C-153.38 345 -148.76 345 -144 345 C-144 349.95 -144 354.9 -144 360 C-139.38 360 -134.76 360 -130 360 C-130 364.62 -130 369.24 -130 374 C-125.05 374 -120.1 374 -115 374 C-115 369.38 -115 364.76 -115 360 C-110.38 360 -105.76 360 -101 360 C-101 345.81 -101 331.62 -101 317 C-105.62 317 -110.24 317 -115 317 C-115 312.05 -115 307.1 -115 302 C-119.95 302 -124.9 302 -130 302 C-130 311.57 -130 321.14 -130 331 C-134.62 331 -139.24 331 -144 331 C-144 302.62 -144 274.24 -144 245 C-139.38 245 -134.76 245 -130 245 C-130 249.62 -130 254.24 -130 259 C-125.05 259 -120.1 259 -115 259 C-115 254.38 -115 249.76 -115 245 C-110.38 245 -105.76 245 -101 245 C-101 240.05 -101 235.1 -101 230 C-96.05 230 -91.1 230 -86 230 C-86 215.81 -86 201.62 -86 187 C-81.38 187 -76.76 187 -72 187 C-72 182.38 -72 177.76 -72 173 C-67.38 173 -62.76 173 -58 173 C-58 163.43 -58 153.86 -58 144 C-62.62 144 -67.24 144 -72 144 C-72 139.05 -72 134.1 -72 129 C-62.43 129 -52.86 129 -43 129 C-43 124.38 -43 119.76 -43 115 C-38.38 115 -33.76 115 -29 115 C-29 110.38 -29 105.76 -29 101 C-38.57 101 -48.14 101 -58 101 C-58 96.05 -58 91.1 -58 86 C-62.62 86 -67.24 86 -72 86 C-72 81.38 -72 76.76 -72 72 C-62.43 72 -52.86 72 -43 72 C-43 76.62 -43 81.24 -43 86 C-38.38 86 -33.76 86 -29 86 C-29 81.38 -29 76.76 -29 72 C-24.05 72 -19.1 72 -14 72 C-14 67.05 -14 62.1 -14 57 C-4.76 57 4.48 57 14 57 C14 47.76 14 38.52 14 29 C9.38 29 4.76 29 0 29 C0 19.43 0 9.86 0 0 Z " fill="#020202" transform="translate(330,141)"/>
<path d="M0 0 C18.81 0 37.62 0 57 0 C57 4.62 57 9.24 57 14 C52.38 14 47.76 14 43 14 C43 18.95 43 23.9 43 29 C38.38 29 33.76 29 29 29 C29 33.62 29 38.24 29 43 C38.24 43 47.48 43 57 43 C57 52.57 57 62.14 57 72 C52.38 72 47.76 72 43 72 C43 76.62 43 81.24 43 86 C28.81 86 14.62 86 0 86 C0 95.57 0 105.14 0 115 C4.62 115 9.24 115 14 115 C14 110.38 14 105.76 14 101 C18.95 101 23.9 101 29 101 C29 105.62 29 110.24 29 115 C38.24 115 47.48 115 57 115 C57 119.62 57 124.24 57 129 C38.19 129 19.38 129 0 129 C0 133.95 0 138.9 0 144 C-9.57 144 -19.14 144 -29 144 C-29 139.05 -29 134.1 -29 129 C-33.62 129 -38.24 129 -43 129 C-43 133.95 -43 138.9 -43 144 C-52.57 144 -62.14 144 -72 144 C-72 148.62 -72 153.24 -72 158 C-67.38 158 -62.76 158 -58 158 C-58 162.95 -58 167.9 -58 173 C-48.43 173 -38.86 173 -29 173 C-29 168.05 -29 163.1 -29 158 C-24.38 158 -19.76 158 -15 158 C-15 177.14 -15 196.28 -15 216 C-19.62 216 -24.24 216 -29 216 C-29 211.05 -29 206.1 -29 201 C-33.62 201 -38.24 201 -43 201 C-43 205.95 -43 210.9 -43 216 C-47.95 216 -52.9 216 -58 216 C-58 206.43 -58 196.86 -58 187 C-72.19 187 -86.38 187 -101 187 C-101 182.38 -101 177.76 -101 173 C-105.62 173 -110.24 173 -115 173 C-115 158.48 -115 143.96 -115 129 C-110.38 129 -105.76 129 -101 129 C-101 119.76 -101 110.52 -101 101 C-96.38 101 -91.76 101 -87 101 C-87 105.62 -87 110.24 -87 115 C-82.05 115 -77.1 115 -72 115 C-72 119.62 -72 124.24 -72 129 C-67.38 129 -62.76 129 -58 129 C-58 124.38 -58 119.76 -58 115 C-53.05 115 -48.1 115 -43 115 C-43 105.43 -43 95.86 -43 86 C-33.76 86 -24.52 86 -15 86 C-15 81.38 -15 76.76 -15 72 C-5.43 72 4.14 72 14 72 C14 62.43 14 52.86 14 43 C9.38 43 4.76 43 0 43 C0 38.38 0 33.76 0 29 C-4.95 29 -9.9 29 -15 29 C-15 24.05 -15 19.1 -15 14 C-10.05 14 -5.1 14 0 14 C0 9.38 0 4.76 0 0 Z " fill="#010101" transform="translate(503,141)"/>
<path d="M0 0 C4.62 0 9.24 0 14 0 C14 4.62 14 9.24 14 14 C18.95 14 23.9 14 29 14 C29 23.57 29 33.14 29 43 C33.62 43 38.24 43 43 43 C43 52.57 43 62.14 43 72 C47.95 72 52.9 72 58 72 C58 76.62 58 81.24 58 86 C67.24 86 76.48 86 86 86 C86 90.95 86 95.9 86 101 C81.38 101 76.76 101 72 101 C72 110.24 72 119.48 72 129 C67.38 129 62.76 129 58 129 C58 133.95 58 138.9 58 144 C48.43 144 38.86 144 29 144 C29 153.57 29 163.14 29 173 C33.62 173 38.24 173 43 173 C43 177.62 43 182.24 43 187 C33.43 187 23.86 187 14 187 C14 172.81 14 158.62 14 144 C9.38 144 4.76 144 0 144 C0 139.05 0 134.1 0 129 C-4.62 129 -9.24 129 -14 129 C-14 143.52 -14 158.04 -14 173 C-18.95 173 -23.9 173 -29 173 C-29 168.05 -29 163.1 -29 158 C-38.57 158 -48.14 158 -58 158 C-58 153.38 -58 148.76 -58 144 C-62.62 144 -67.24 144 -72 144 C-72 139.05 -72 134.1 -72 129 C-62.43 129 -52.86 129 -43 129 C-43 124.38 -43 119.76 -43 115 C-38.38 115 -33.76 115 -29 115 C-29 110.38 -29 105.76 -29 101 C-38.57 101 -48.14 101 -58 101 C-58 96.05 -58 91.1 -58 86 C-62.62 86 -67.24 86 -72 86 C-72 81.38 -72 76.76 -72 72 C-62.43 72 -52.86 72 -43 72 C-43 76.62 -43 81.24 -43 86 C-38.38 86 -33.76 86 -29 86 C-29 81.38 -29 76.76 -29 72 C-24.05 72 -19.1 72 -14 72 C-14 67.05 -14 62.1 -14 57 C-4.76 57 4.48 57 14 57 C14 47.76 14 38.52 14 29 C9.38 29 4.76 29 0 29 C0 19.43 0 9.86 0 0 Z " fill="#FBFBFB" transform="translate(330,141)"/>
<path d="M0 0 C4.62 0 9.24 0 14 0 C14 4.62 14 9.24 14 14 C18.62 14 23.24 14 28 14 C28 18.95 28 23.9 28 29 C23.38 29 18.76 29 14 29 C14 33.62 14 38.24 14 43 C18.62 43 23.24 43 28 43 C28 47.62 28 52.24 28 57 C32.95 57 37.9 57 43 57 C43 61.95 43 66.9 43 72 C47.62 72 52.24 72 57 72 C57 76.62 57 81.24 57 86 C52.38 86 47.76 86 43 86 C43 95.57 43 105.14 43 115 C38.05 115 33.1 115 28 115 C28 119.62 28 124.24 28 129 C32.95 129 37.9 129 43 129 C43 133.95 43 138.9 43 144 C47.62 144 52.24 144 57 144 C57 153.57 57 163.14 57 173 C47.43 173 37.86 173 28 173 C28 168.05 28 163.1 28 158 C18.76 158 9.52 158 0 158 C0 153.38 0 148.76 0 144 C-4.95 144 -9.9 144 -15 144 C-15 134.43 -15 124.86 -15 115 C-19.62 115 -24.24 115 -29 115 C-29 105.43 -29 95.86 -29 86 C-33.95 86 -38.9 86 -44 86 C-44 81.38 -44 76.76 -44 72 C-48.62 72 -53.24 72 -58 72 C-58 81.57 -58 91.14 -58 101 C-62.62 101 -67.24 101 -72 101 C-72 96.05 -72 91.1 -72 86 C-76.95 86 -81.9 86 -87 86 C-87 81.38 -87 76.76 -87 72 C-82.05 72 -77.1 72 -72 72 C-72 62.43 -72 52.86 -72 43 C-67.38 43 -62.76 43 -58 43 C-58 47.62 -58 52.24 -58 57 C-53.38 57 -48.76 57 -44 57 C-44 47.76 -44 38.52 -44 29 C-39.05 29 -34.1 29 -29 29 C-29 38.24 -29 47.48 -29 57 C-24.38 57 -19.76 57 -15 57 C-15 52.38 -15 47.76 -15 43 C-10.05 43 -5.1 43 0 43 C0 28.81 0 14.62 0 0 Z " fill="#010101" transform="translate(388,69)"/>
<path d="M0 0 C33 0 66 0 100 0 C100 33 100 66 100 100 C67 100 34 100 0 100 C0 67 0 34 0 0 Z " fill="#FEFEFE" transform="translate(28,458)"/>
<path d="M0 0 C33 0 66 0 100 0 C100 33 100 66 100 100 C67 100 34 100 0 100 C0 67 0 34 0 0 Z " fill="#FEFEFE" transform="translate(460,26)"/>
<path d="M0 0 C33 0 66 0 100 0 C100 33 100 66 100 100 C67 100 34 100 0 100 C0 67 0 34 0 0 Z " fill="#FEFEFE" transform="translate(28,26)"/>
<path d="M0 0 C4.62 0 9.24 0 14 0 C14 4.62 14 9.24 14 14 C18.62 14 23.24 14 28 14 C28 23.57 28 33.14 28 43 C23.38 43 18.76 43 14 43 C14 52.57 14 62.14 14 72 C9.38 72 4.76 72 0 72 C0 76.62 0 81.24 0 86 C-4.95 86 -9.9 86 -15 86 C-15 90.62 -15 95.24 -15 100 C-19.62 100 -24.24 100 -29 100 C-29 109.57 -29 119.14 -29 129 C-48.14 129 -67.28 129 -87 129 C-87 114.81 -87 100.62 -87 86 C-91.62 86 -96.24 86 -101 86 C-101 76.43 -101 66.86 -101 57 C-105.95 57 -110.9 57 -116 57 C-116 61.95 -116 66.9 -116 72 C-120.62 72 -125.24 72 -130 72 C-130 62.43 -130 52.86 -130 43 C-115.81 43 -101.62 43 -87 43 C-87 52.57 -87 62.14 -87 72 C-82.05 72 -77.1 72 -72 72 C-72 81.24 -72 90.48 -72 100 C-67.38 100 -62.76 100 -58 100 C-58 95.38 -58 90.76 -58 86 C-53.38 86 -48.76 86 -44 86 C-44 81.38 -44 76.76 -44 72 C-39.05 72 -34.1 72 -29 72 C-29 67.05 -29 62.1 -29 57 C-24.38 57 -19.76 57 -15 57 C-15 52.38 -15 47.76 -15 43 C-29.19 43 -43.38 43 -58 43 C-58 38.05 -58 33.1 -58 28 C-48.43 28 -38.86 28 -29 28 C-29 23.38 -29 18.76 -29 14 C-19.43 14 -9.86 14 0 14 C0 9.38 0 4.76 0 0 Z " fill="#010101" transform="translate(316,26)"/>
<path d="M0 0 C4.95 0 9.9 0 15 0 C15 9.57 15 19.14 15 29 C19.62 29 24.24 29 29 29 C29 24.38 29 19.76 29 15 C33.62 15 38.24 15 43 15 C43 24.57 43 34.14 43 44 C38.38 44 33.76 44 29 44 C29 72.38 29 100.76 29 130 C33.62 130 38.24 130 43 130 C43 120.43 43 110.86 43 101 C47.95 101 52.9 101 58 101 C58 105.95 58 110.9 58 116 C62.62 116 67.24 116 72 116 C72 130.19 72 144.38 72 159 C67.38 159 62.76 159 58 159 C58 163.62 58 168.24 58 173 C53.05 173 48.1 173 43 173 C43 168.38 43 163.76 43 159 C38.38 159 33.76 159 29 159 C29 154.05 29 149.1 29 144 C24.38 144 19.76 144 15 144 C15 134.76 15 125.52 15 116 C10.05 116 5.1 116 0 116 C0 111.05 0 106.1 0 101 C4.95 101 9.9 101 15 101 C15 82.19 15 63.38 15 44 C5.43 44 -4.14 44 -14 44 C-14 53.24 -14 62.48 -14 72 C-18.95 72 -23.9 72 -29 72 C-29 67.38 -29 62.76 -29 58 C-33.62 58 -38.24 58 -43 58 C-43 53.38 -43 48.76 -43 44 C-38.38 44 -33.76 44 -29 44 C-29 39.05 -29 34.1 -29 29 C-33.62 29 -38.24 29 -43 29 C-43 24.38 -43 19.76 -43 15 C-33.43 15 -23.86 15 -14 15 C-14 19.62 -14 24.24 -14 29 C-9.38 29 -4.76 29 0 29 C0 19.43 0 9.86 0 0 Z " fill="#FCFCFC" transform="translate(157,342)"/>
<path d="M0 0 C9.24 0 18.48 0 28 0 C28 14.19 28 28.38 28 43 C37.57 43 47.14 43 57 43 C57 38.05 57 33.1 57 28 C52.38 28 47.76 28 43 28 C43 18.76 43 9.52 43 0 C52.57 0 62.14 0 72 0 C72 9.24 72 18.48 72 28 C76.62 28 81.24 28 86 28 C86 32.95 86 37.9 86 43 C90.62 43 95.24 43 100 43 C100 47.62 100 52.24 100 57 C85.81 57 71.62 57 57 57 C57 61.95 57 66.9 57 72 C61.95 72 66.9 72 72 72 C72 76.62 72 81.24 72 86 C76.62 86 81.24 86 86 86 C86 90.62 86 95.24 86 100 C76.43 100 66.86 100 57 100 C57 95.38 57 90.76 57 86 C47.43 86 37.86 86 28 86 C28 90.62 28 95.24 28 100 C23.38 100 18.76 100 14 100 C14 85.81 14 71.62 14 57 C9.38 57 4.76 57 0 57 C0 52.38 0 47.76 0 43 C-4.95 43 -9.9 43 -15 43 C-15 38.05 -15 33.1 -15 28 C-10.05 28 -5.1 28 0 28 C0 18.76 0 9.52 0 0 Z " fill="#000000" transform="translate(316,458)"/>
<path d="M0 0 C4.95 0 9.9 0 15 0 C15 4.95 15 9.9 15 15 C19.62 15 24.24 15 29 15 C29 10.05 29 5.1 29 0 C33.62 0 38.24 0 43 0 C43 4.95 43 9.9 43 15 C47.95 15 52.9 15 58 15 C58 19.62 58 24.24 58 29 C62.62 29 67.24 29 72 29 C72 33.95 72 38.9 72 44 C62.43 44 52.86 44 43 44 C43 48.62 43 53.24 43 58 C38.38 58 33.76 58 29 58 C29 72.19 29 86.38 29 101 C24.38 101 19.76 101 15 101 C15 86.81 15 72.62 15 58 C5.43 58 -4.14 58 -14 58 C-14 62.62 -14 67.24 -14 72 C-18.95 72 -23.9 72 -29 72 C-29 67.38 -29 62.76 -29 58 C-38.24 58 -47.48 58 -57 58 C-57 53.38 -57 48.76 -57 44 C-52.38 44 -47.76 44 -43 44 C-43 39.05 -43 34.1 -43 29 C-38.38 29 -33.76 29 -29 29 C-29 24.38 -29 19.76 -29 15 C-19.43 15 -9.86 15 0 15 C0 10.05 0 5.1 0 0 Z " fill="#FCFCFC" transform="translate(373,342)"/>
<path d="M0 0 C33 0 66 0 100 0 C100 33 100 66 100 100 C67 100 34 100 0 100 C0 67 0 34 0 0 Z M14 14 C14 37.76 14 61.52 14 86 C37.76 86 61.52 86 86 86 C86 62.24 86 38.48 86 14 C62.24 14 38.48 14 14 14 Z " fill="#000000" transform="translate(28,458)"/>
<path d="M0 0 C33 0 66 0 100 0 C100 33 100 66 100 100 C67 100 34 100 0 100 C0 67 0 34 0 0 Z M14 14 C14 37.76 14 61.52 14 86 C37.76 86 61.52 86 86 86 C86 62.24 86 38.48 86 14 C62.24 14 38.48 14 14 14 Z " fill="#000000" transform="translate(460,26)"/>
<path d="M0 0 C33 0 66 0 100 0 C100 33 100 66 100 100 C67 100 34 100 0 100 C0 67 0 34 0 0 Z M14 14 C14 37.76 14 61.52 14 86 C37.76 86 61.52 86 86 86 C86 62.24 86 38.48 86 14 C62.24 14 38.48 14 14 14 Z " fill="#000000" transform="translate(28,26)"/>
<path d="M0 0 C23.76 0 47.52 0 72 0 C72 4.95 72 9.9 72 15 C67.38 15 62.76 15 58 15 C58 24.24 58 33.48 58 43 C53.38 43 48.76 43 44 43 C44 47.95 44 52.9 44 58 C34.43 58 24.86 58 15 58 C15 67.57 15 77.14 15 87 C19.62 87 24.24 87 29 87 C29 91.62 29 96.24 29 101 C19.43 101 9.86 101 0 101 C0 86.81 0 72.62 0 58 C-4.62 58 -9.24 58 -14 58 C-14 43.81 -14 29.62 -14 15 C-9.38 15 -4.76 15 0 15 C0 10.05 0 5.1 0 0 Z " fill="#FBFBFB" transform="translate(344,227)"/>
<path d="M0 0 C4.62 0 9.24 0 14 0 C14 4.62 14 9.24 14 14 C18.95 14 23.9 14 29 14 C29 23.57 29 33.14 29 43 C33.62 43 38.24 43 43 43 C43 52.57 43 62.14 43 72 C47.95 72 52.9 72 58 72 C58 76.62 58 81.24 58 86 C43.48 86 28.96 86 14 86 C14 90.95 14 95.9 14 101 C4.76 101 -4.48 101 -14 101 C-14 86.48 -14 71.96 -14 57 C-4.76 57 4.48 57 14 57 C14 47.76 14 38.52 14 29 C9.38 29 4.76 29 0 29 C0 19.43 0 9.86 0 0 Z " fill="#FCFCFC" transform="translate(330,141)"/>
<path d="M0 0 C14.19 0 28.38 0 43 0 C43 9.57 43 19.14 43 29 C47.95 29 52.9 29 58 29 C58 38.24 58 47.48 58 57 C62.62 57 67.24 57 72 57 C72 52.38 72 47.76 72 43 C76.62 43 81.24 43 86 43 C86 47.62 86 52.24 86 57 C90.95 57 95.9 57 101 57 C101 66.57 101 76.14 101 86 C81.86 86 62.72 86 43 86 C43 71.81 43 57.62 43 43 C38.38 43 33.76 43 29 43 C29 33.43 29 23.86 29 14 C24.05 14 19.1 14 14 14 C14 18.95 14 23.9 14 29 C9.38 29 4.76 29 0 29 C0 19.43 0 9.86 0 0 Z " fill="#010101" transform="translate(186,69)"/>
<path d="M0 0 C9.57 0 19.14 0 29 0 C29 18.81 29 37.62 29 57 C24.05 57 19.1 57 14 57 C14 61.95 14 66.9 14 72 C9.38 72 4.76 72 0 72 C0 67.05 0 62.1 0 57 C-14.19 57 -28.38 57 -43 57 C-43 52.38 -43 47.76 -43 43 C-33.76 43 -24.52 43 -15 43 C-15 38.05 -15 33.1 -15 28 C-10.05 28 -5.1 28 0 28 C0 18.76 0 9.52 0 0 Z " fill="#030303" transform="translate(143,386)"/>
<path d="M0 0 C14.52 0 29.04 0 44 0 C44 4.95 44 9.9 44 15 C39.05 15 34.1 15 29 15 C29 19.62 29 24.24 29 29 C33.95 29 38.9 29 44 29 C44 43.19 44 57.38 44 72 C39.05 72 34.1 72 29 72 C29 76.95 29 81.9 29 87 C24.38 87 19.76 87 15 87 C15 72.48 15 57.96 15 43 C10.05 43 5.1 43 0 43 C0 38.38 0 33.76 0 29 C4.95 29 9.9 29 15 29 C15 24.38 15 19.76 15 15 C10.05 15 5.1 15 0 15 C0 10.05 0 5.1 0 0 Z " fill="#F9F9F9" transform="translate(200,299)"/>
<path d="M0 0 C4.95 0 9.9 0 15 0 C15 9.57 15 19.14 15 29 C10.05 29 5.1 29 0 29 C0 33.62 0 38.24 0 43 C4.95 43 9.9 43 15 43 C15 47.95 15 52.9 15 58 C19.62 58 24.24 58 29 58 C29 62.62 29 67.24 29 72 C14.81 72 0.62 72 -14 72 C-14 67.38 -14 62.76 -14 58 C-18.95 58 -23.9 58 -29 58 C-29 62.62 -29 67.24 -29 72 C-33.62 72 -38.24 72 -43 72 C-43 62.43 -43 52.86 -43 43 C-33.43 43 -23.86 43 -14 43 C-14 33.43 -14 23.86 -14 14 C-9.38 14 -4.76 14 0 14 C0 9.38 0 4.76 0 0 Z " fill="#FBFBFB" transform="translate(301,112)"/>
<path d="M0 0 C9.57 0 19.14 0 29 0 C29 4.62 29 9.24 29 14 C33.95 14 38.9 14 44 14 C44 18.95 44 23.9 44 29 C34.43 29 24.86 29 15 29 C15 38.24 15 47.48 15 57 C19.62 57 24.24 57 29 57 C29 61.95 29 66.9 29 72 C19.43 72 9.86 72 0 72 C0 57.81 0 43.62 0 29 C-9.24 29 -18.48 29 -28 29 C-28 24.05 -28 19.1 -28 14 C-18.76 14 -9.52 14 0 14 C0 9.38 0 4.76 0 0 Z " fill="#FAFAFA" transform="translate(344,429)"/>
<path d="M0 0 C4.95 0 9.9 0 15 0 C15 4.62 15 9.24 15 14 C19.62 14 24.24 14 29 14 C29 18.95 29 23.9 29 29 C33.62 29 38.24 29 43 29 C43 24.05 43 19.1 43 14 C47.95 14 52.9 14 58 14 C58 18.95 58 23.9 58 29 C62.62 29 67.24 29 72 29 C72 38.57 72 48.14 72 58 C62.43 58 52.86 58 43 58 C43 53.05 43 48.1 43 43 C33.76 43 24.52 43 15 43 C15 38.38 15 33.76 15 29 C10.05 29 5.1 29 0 29 C0 19.43 0 9.86 0 0 Z " fill="#030303" transform="translate(373,184)"/>
<path d="M0 0 C4.95 0 9.9 0 15 0 C15 4.95 15 9.9 15 15 C19.62 15 24.24 15 29 15 C29 19.62 29 24.24 29 29 C24.38 29 19.76 29 15 29 C15 38.57 15 48.14 15 58 C10.05 58 5.1 58 0 58 C0 48.43 0 38.86 0 29 C-4.62 29 -9.24 29 -14 29 C-14 38.57 -14 48.14 -14 58 C-18.62 58 -23.24 58 -28 58 C-28 53.05 -28 48.1 -28 43 C-32.95 43 -37.9 43 -43 43 C-43 38.38 -43 33.76 -43 29 C-38.05 29 -33.1 29 -28 29 C-28 24.38 -28 19.76 -28 15 C-18.76 15 -9.52 15 0 15 C0 10.05 0 5.1 0 0 Z " fill="#050505" transform="translate(488,371)"/>
<path d="M0 0 C9.57 0 19.14 0 29 0 C29 4.62 29 9.24 29 14 C33.62 14 38.24 14 43 14 C43 23.57 43 33.14 43 43 C38.38 43 33.76 43 29 43 C29 47.62 29 52.24 29 57 C19.43 57 9.86 57 0 57 C0 38.19 0 19.38 0 0 Z " fill="#010101" transform="translate(143,26)"/>
<path d="M0 0 C4.62 0 9.24 0 14 0 C14 4.62 14 9.24 14 14 C18.95 14 23.9 14 29 14 C29 9.38 29 4.76 29 0 C33.62 0 38.24 0 43 0 C43 9.24 43 18.48 43 28 C33.43 28 23.86 28 14 28 C14 32.95 14 37.9 14 43 C18.95 43 23.9 43 29 43 C29 47.62 29 52.24 29 57 C24.05 57 19.1 57 14 57 C14 66.57 14 76.14 14 86 C9.38 86 4.76 86 0 86 C0 57.62 0 29.24 0 0 Z " fill="#000000" transform="translate(186,386)"/>
<path d="M0 0 C14.52 0 29.04 0 44 0 C44 14.52 44 29.04 44 44 C29.48 44 14.96 44 0 44 C0 29.48 0 14.96 0 0 Z " fill="#060606" transform="translate(56,486)"/>
<path d="M0 0 C14.52 0 29.04 0 44 0 C44 14.52 44 29.04 44 44 C29.48 44 14.96 44 0 44 C0 29.48 0 14.96 0 0 Z " fill="#060606" transform="translate(488,54)"/>
<path d="M0 0 C14.52 0 29.04 0 44 0 C44 14.52 44 29.04 44 44 C29.48 44 14.96 44 0 44 C0 29.48 0 14.96 0 0 Z " fill="#060606" transform="translate(56,54)"/>
<path d="M0 0 C14.19 0 28.38 0 43 0 C43 14.19 43 28.38 43 43 C28.81 43 14.62 43 0 43 C0 28.81 0 14.62 0 0 Z " fill="#FDFDFD" transform="translate(445,443)"/>
<path d="M0 0 C14.19 0 28.38 0 43 0 C43 4.62 43 9.24 43 14 C33.76 14 24.52 14 15 14 C15 23.57 15 33.14 15 43 C10.05 43 5.1 43 0 43 C0 47.62 0 52.24 0 57 C-4.62 57 -9.24 57 -14 57 C-14 52.38 -14 47.76 -14 43 C-18.95 43 -23.9 43 -29 43 C-29 38.38 -29 33.76 -29 29 C-19.43 29 -9.86 29 0 29 C0 19.43 0 9.86 0 0 Z " fill="#FCFCFC" transform="translate(445,213)"/>
<path d="M0 0 C14.19 0 28.38 0 43 0 C43 4.62 43 9.24 43 14 C38.38 14 33.76 14 29 14 C29 18.95 29 23.9 29 29 C24.05 29 19.1 29 14 29 C14 33.62 14 38.24 14 43 C9.38 43 4.76 43 0 43 C0 47.62 0 52.24 0 57 C-4.62 57 -9.24 57 -14 57 C-14 47.76 -14 38.52 -14 29 C-9.38 29 -4.76 29 0 29 C0 19.43 0 9.86 0 0 Z " fill="#FEFEFE" transform="translate(258,69)"/>
<path d="M0 0 C4.95 0 9.9 0 15 0 C15 18.81 15 37.62 15 57 C5.43 57 -4.14 57 -14 57 C-14 52.38 -14 47.76 -14 43 C-9.38 43 -4.76 43 0 43 C0 38.38 0 33.76 0 29 C-9.24 29 -18.48 29 -28 29 C-28 24.05 -28 19.1 -28 14 C-18.76 14 -9.52 14 0 14 C0 9.38 0 4.76 0 0 Z " fill="#FCFCFC" transform="translate(128,285)"/>
<path d="M0 0 C9.57 0 19.14 0 29 0 C29 9.57 29 19.14 29 29 C24.05 29 19.1 29 14 29 C14 33.62 14 38.24 14 43 C4.43 43 -5.14 43 -15 43 C-15 33.76 -15 24.52 -15 15 C-10.05 15 -5.1 15 0 15 C0 10.05 0 5.1 0 0 Z " fill="#050505" transform="translate(287,83)"/>
<path d="M0 0 C9.57 0 19.14 0 29 0 C29 4.95 29 9.9 29 15 C33.62 15 38.24 15 43 15 C43 19.62 43 24.24 43 29 C38.38 29 33.76 29 29 29 C29 33.62 29 38.24 29 43 C24.38 43 19.76 43 15 43 C15 38.38 15 33.76 15 29 C5.43 29 -4.14 29 -14 29 C-14 24.38 -14 19.76 -14 15 C-9.38 15 -4.76 15 0 15 C0 10.05 0 5.1 0 0 Z " fill="#020202" transform="translate(517,299)"/>
<path d="M0 0 C4.62 0 9.24 0 14 0 C14 33 14 66 14 100 C9.38 100 4.76 100 0 100 C0 67 0 34 0 0 Z " fill="#000000" transform="translate(431,26)"/>
<path d="M0 0 C4.95 0 9.9 0 15 0 C15 14.19 15 28.38 15 43 C10.05 43 5.1 43 0 43 C0 47.62 0 52.24 0 57 C-4.62 57 -9.24 57 -14 57 C-14 52.38 -14 47.76 -14 43 C-18.95 43 -23.9 43 -29 43 C-29 38.05 -29 33.1 -29 28 C-19.43 28 -9.86 28 0 28 C0 18.76 0 9.52 0 0 Z " fill="#F9F9F9" transform="translate(229,386)"/>
<path d="M0 0 C4.95 0 9.9 0 15 0 C15 14.19 15 28.38 15 43 C10.05 43 5.1 43 0 43 C0 47.95 0 52.9 0 58 C-4.62 58 -9.24 58 -14 58 C-14 43.48 -14 28.96 -14 14 C-9.38 14 -4.76 14 0 14 C0 9.38 0 4.76 0 0 Z " fill="#FAFAFA" transform="translate(229,328)"/>
<path d="M0 0 C4.62 0 9.24 0 14 0 C14 4.62 14 9.24 14 14 C18.62 14 23.24 14 28 14 C28 18.95 28 23.9 28 29 C23.38 29 18.76 29 14 29 C14 38.57 14 48.14 14 58 C9.38 58 4.76 58 0 58 C0 53.05 0 48.1 0 43 C-4.95 43 -9.9 43 -15 43 C-15 38.38 -15 33.76 -15 29 C-10.05 29 -5.1 29 0 29 C0 19.43 0 9.86 0 0 Z " fill="#010101" transform="translate(316,112)"/>
<path d="M0 0 C4.62 0 9.24 0 14 0 C14 4.95 14 9.9 14 15 C18.95 15 23.9 15 29 15 C29 19.62 29 24.24 29 29 C24.05 29 19.1 29 14 29 C14 38.57 14 48.14 14 58 C9.38 58 4.76 58 0 58 C0 53.05 0 48.1 0 43 C-4.62 43 -9.24 43 -14 43 C-14 38.38 -14 33.76 -14 29 C-9.38 29 -4.76 29 0 29 C0 19.43 0 9.86 0 0 Z " fill="#FEFEFE" transform="translate(258,443)"/>
<path d="M0 0 C4.62 0 9.24 0 14 0 C14 9.57 14 19.14 14 29 C4.43 29 -5.14 29 -15 29 C-15 38.57 -15 48.14 -15 58 C-19.62 58 -24.24 58 -29 58 C-29 43.81 -29 29.62 -29 15 C-19.43 15 -9.86 15 0 15 C0 10.05 0 5.1 0 0 Z " fill="#FEFEFE" transform="translate(287,371)"/>
<path d="M0 0 C9.57 0 19.14 0 29 0 C29 4.95 29 9.9 29 15 C24.38 15 19.76 15 15 15 C15 29.19 15 43.38 15 58 C10.05 58 5.1 58 0 58 C0 38.86 0 19.72 0 0 Z " fill="#F9F9F9" transform="translate(416,414)"/>
<path d="M0 0 C4.95 0 9.9 0 15 0 C15 14.19 15 28.38 15 43 C19.62 43 24.24 43 29 43 C29 47.62 29 52.24 29 57 C19.43 57 9.86 57 0 57 C0 38.19 0 19.38 0 0 Z " fill="#050505" transform="translate(344,98)"/>
<path d="M0 0 C14.19 0 28.38 0 43 0 C43 9.57 43 19.14 43 29 C38.38 29 33.76 29 29 29 C29 24.05 29 19.1 29 14 C24.38 14 19.76 14 15 14 C15 18.95 15 23.9 15 29 C10.05 29 5.1 29 0 29 C0 19.43 0 9.86 0 0 Z " fill="#FDFDFD" transform="translate(445,328)"/>
<path d="M0 0 C9.24 0 18.48 0 28 0 C28 4.95 28 9.9 28 15 C23.38 15 18.76 15 14 15 C14 24.24 14 33.48 14 43 C9.38 43 4.76 43 0 43 C0 38.38 0 33.76 0 29 C-4.95 29 -9.9 29 -15 29 C-15 24.38 -15 19.76 -15 15 C-10.05 15 -5.1 15 0 15 C0 10.05 0 5.1 0 0 Z " fill="#FDFDFD" transform="translate(388,227)"/>
<path d="M0 0 C9.57 0 19.14 0 29 0 C29 4.62 29 9.24 29 14 C33.95 14 38.9 14 44 14 C44 18.62 44 23.24 44 28 C29.48 28 14.96 28 0 28 C0 18.76 0 9.52 0 0 Z " fill="#030303" transform="translate(200,26)"/>
<path d="M0 0 C9.24 0 18.48 0 28 0 C28 4.62 28 9.24 28 14 C23.38 14 18.76 14 14 14 C14 23.57 14 33.14 14 43 C9.38 43 4.76 43 0 43 C0 38.05 0 33.1 0 28 C-4.95 28 -9.9 28 -15 28 C-15 23.38 -15 18.76 -15 14 C-10.05 14 -5.1 14 0 14 C0 9.38 0 4.76 0 0 Z " fill="#FEFEFE" transform="translate(460,386)"/>
<path d="M0 0 C4.62 0 9.24 0 14 0 C14 9.57 14 19.14 14 29 C18.62 29 23.24 29 28 29 C28 38.57 28 48.14 28 58 C23.38 58 18.76 58 14 58 C14 53.05 14 48.1 14 43 C9.38 43 4.76 43 0 43 C0 28.81 0 14.62 0 0 Z " fill="#010101" transform="translate(28,328)"/>
<path d="M0 0 C4.95 0 9.9 0 15 0 C15 4.62 15 9.24 15 14 C24.24 14 33.48 14 43 14 C43 18.62 43 23.24 43 28 C24.19 28 5.38 28 -14 28 C-14 23.38 -14 18.76 -14 14 C-9.38 14 -4.76 14 0 14 C0 9.38 0 4.76 0 0 Z " fill="#010101" transform="translate(517,242)"/>
<path d="M0 0 C14.52 0 29.04 0 44 0 C44 4.95 44 9.9 44 15 C39.05 15 34.1 15 29 15 C29 19.62 29 24.24 29 29 C24.38 29 19.76 29 15 29 C15 24.38 15 19.76 15 15 C10.05 15 5.1 15 0 15 C0 10.05 0 5.1 0 0 Z " fill="#050505" transform="translate(344,227)"/>
<path d="M0 0 C4.95 0 9.9 0 15 0 C15 4.62 15 9.24 15 14 C19.62 14 24.24 14 29 14 C29 18.95 29 23.9 29 29 C24.38 29 19.76 29 15 29 C15 33.62 15 38.24 15 43 C10.05 43 5.1 43 0 43 C0 28.81 0 14.62 0 0 Z " fill="#FBFBFB" transform="translate(301,328)"/>
<path d="M0 0 C14.19 0 28.38 0 43 0 C43 4.95 43 9.9 43 15 C38.38 15 33.76 15 29 15 C29 19.62 29 24.24 29 29 C24.38 29 19.76 29 15 29 C15 24.38 15 19.76 15 15 C10.05 15 5.1 15 0 15 C0 10.05 0 5.1 0 0 Z " fill="#FCFCFC" transform="translate(373,515)"/>
<path d="M0 0 C9.57 0 19.14 0 29 0 C29 4.62 29 9.24 29 14 C24.05 14 19.1 14 14 14 C14 18.95 14 23.9 14 29 C4.43 29 -5.14 29 -15 29 C-15 24.05 -15 19.1 -15 14 C-10.05 14 -5.1 14 0 14 C0 9.38 0 4.76 0 0 Z " fill="#FBFBFB" transform="translate(215,184)"/>
<path d="M0 0 C9.57 0 19.14 0 29 0 C29 9.57 29 19.14 29 29 C19.43 29 9.86 29 0 29 C0 19.43 0 9.86 0 0 Z " fill="#FAFAFA" transform="translate(71,184)"/>
<path d="M0 0 C9.57 0 19.14 0 29 0 C29 14.19 29 28.38 29 43 C24.38 43 19.76 43 15 43 C15 33.76 15 24.52 15 15 C10.05 15 5.1 15 0 15 C0 10.05 0 5.1 0 0 Z " fill="#FCFCFC" transform="translate(200,227)"/>
<path d="M0 0 C4.95 0 9.9 0 15 0 C15 4.95 15 9.9 15 15 C19.62 15 24.24 15 29 15 C29 19.62 29 24.24 29 29 C14.81 29 0.62 29 -14 29 C-14 24.38 -14 19.76 -14 15 C-9.38 15 -4.76 15 0 15 C0 10.05 0 5.1 0 0 Z " fill="#FDFDFD" transform="translate(128,227)"/>
<path d="M0 0 C4.62 0 9.24 0 14 0 C14 9.24 14 18.48 14 28 C9.38 28 4.76 28 0 28 C0 32.95 0 37.9 0 43 C-4.95 43 -9.9 43 -15 43 C-15 33.43 -15 23.86 -15 14 C-10.05 14 -5.1 14 0 14 C0 9.38 0 4.76 0 0 Z " fill="#FDFDFD" transform="translate(172,170)"/>
<path d="M0 0 C4.95 0 9.9 0 15 0 C15 4.95 15 9.9 15 15 C19.62 15 24.24 15 29 15 C29 19.62 29 24.24 29 29 C14.81 29 0.62 29 -14 29 C-14 24.38 -14 19.76 -14 15 C-9.38 15 -4.76 15 0 15 C0 10.05 0 5.1 0 0 Z " fill="#FDFDFD" transform="translate(301,155)"/>
<path d="M0 0 C4.95 0 9.9 0 15 0 C15 9.24 15 18.48 15 28 C10.05 28 5.1 28 0 28 C0 32.95 0 37.9 0 43 C-4.62 43 -9.24 43 -14 43 C-14 33.43 -14 23.86 -14 14 C-9.38 14 -4.76 14 0 14 C0 9.38 0 4.76 0 0 Z " fill="#020202" transform="translate(157,458)"/>
<path d="M0 0 C4.62 0 9.24 0 14 0 C14 9.57 14 19.14 14 29 C-0.19 29 -14.38 29 -29 29 C-29 24.38 -29 19.76 -29 15 C-19.43 15 -9.86 15 0 15 C0 10.05 0 5.1 0 0 Z " fill="#000000" transform="translate(474,299)"/>
<path d="M0 0 C9.24 0 18.48 0 28 0 C28 9.57 28 19.14 28 29 C18.76 29 9.52 29 0 29 C0 19.43 0 9.86 0 0 Z " fill="#000000" transform="translate(28,227)"/>
<path d="M0 0 C4.62 0 9.24 0 14 0 C14 4.62 14 9.24 14 14 C18.62 14 23.24 14 28 14 C28 18.95 28 23.9 28 29 C23.38 29 18.76 29 14 29 C14 33.62 14 38.24 14 43 C9.38 43 4.76 43 0 43 C0 28.81 0 14.62 0 0 Z " fill="#010101" transform="translate(388,69)"/>
<path d="M0 0 C9.24 0 18.48 0 28 0 C28 14.19 28 28.38 28 43 C23.38 43 18.76 43 14 43 C14 33.43 14 23.86 14 14 C9.38 14 4.76 14 0 14 C0 9.38 0 4.76 0 0 Z " fill="#000000" transform="translate(28,141)"/>
<path d="M0 0 C9.57 0 19.14 0 29 0 C29 9.57 29 19.14 29 29 C24.05 29 19.1 29 14 29 C14 24.38 14 19.76 14 15 C9.38 15 4.76 15 0 15 C0 10.05 0 5.1 0 0 Z " fill="#F8F8F8" transform="translate(143,270)"/>
<path d="M0 0 C14.19 0 28.38 0 43 0 C43 4.95 43 9.9 43 15 C28.81 15 14.62 15 0 15 C0 10.05 0 5.1 0 0 Z " fill="#040404" transform="translate(445,198)"/>
<path d="M0 0 C4.62 0 9.24 0 14 0 C14 4.62 14 9.24 14 14 C18.95 14 23.9 14 29 14 C29 18.95 29 23.9 29 29 C19.43 29 9.86 29 0 29 C0 19.43 0 9.86 0 0 Z " fill="#FDFDFD" transform="translate(258,328)"/>
<path d="M0 0 C9.57 0 19.14 0 29 0 C29 4.95 29 9.9 29 15 C24.05 15 19.1 15 14 15 C14 19.62 14 24.24 14 29 C9.38 29 4.76 29 0 29 C0 19.43 0 9.86 0 0 Z " fill="#FDFDFD" transform="translate(258,155)"/>
<path d="M0 0 C9.57 0 19.14 0 29 0 C29 9.57 29 19.14 29 29 C24.38 29 19.76 29 15 29 C15 24.05 15 19.1 15 14 C10.05 14 5.1 14 0 14 C0 9.38 0 4.76 0 0 Z " fill="#F9F9F9" transform="translate(416,184)"/>
<path d="M0 0 C9.57 0 19.14 0 29 0 C29 9.57 29 19.14 29 29 C24.38 29 19.76 29 15 29 C15 24.05 15 19.1 15 14 C10.05 14 5.1 14 0 14 C0 9.38 0 4.76 0 0 Z " fill="#010101" transform="translate(301,69)"/>
<path d="M0 0 C4.62 0 9.24 0 14 0 C14 14.19 14 28.38 14 43 C9.38 43 4.76 43 0 43 C0 28.81 0 14.62 0 0 Z " fill="#FEFEFE" transform="translate(388,400)"/>
<path d="M0 0 C14.19 0 28.38 0 43 0 C43 4.62 43 9.24 43 14 C28.81 14 14.62 14 0 14 C0 9.38 0 4.76 0 0 Z " fill="#FEFEFE" transform="translate(402,314)"/>
<path d="M0 0 C9.57 0 19.14 0 29 0 C29 9.24 29 18.48 29 28 C24.38 28 19.76 28 15 28 C15 23.38 15 18.76 15 14 C10.05 14 5.1 14 0 14 C0 9.38 0 4.76 0 0 Z " fill="#FEFEFE" transform="translate(157,314)"/>
<path d="M0 0 C9.57 0 19.14 0 29 0 C29 9.24 29 18.48 29 28 C24.38 28 19.76 28 15 28 C15 23.38 15 18.76 15 14 C10.05 14 5.1 14 0 14 C0 9.38 0 4.76 0 0 Z " fill="#FEFEFE" transform="translate(373,170)"/>
<path d="M0 0 C9.24 0 18.48 0 28 0 C28 9.24 28 18.48 28 28 C23.38 28 18.76 28 14 28 C14 23.38 14 18.76 14 14 C9.38 14 4.76 14 0 14 C0 9.38 0 4.76 0 0 Z " fill="#000000" transform="translate(388,26)"/>
<path d="M0 0 C9.57 0 19.14 0 29 0 C29 4.95 29 9.9 29 15 C19.43 15 9.86 15 0 15 C0 10.05 0 5.1 0 0 Z " fill="#070707" transform="translate(416,515)"/>
<path d="M0 0 C4.95 0 9.9 0 15 0 C15 9.57 15 19.14 15 29 C10.05 29 5.1 29 0 29 C0 19.43 0 9.86 0 0 Z " fill="#050505" transform="translate(272,472)"/>
<path d="M0 0 C9.57 0 19.14 0 29 0 C29 4.95 29 9.9 29 15 C19.43 15 9.86 15 0 15 C0 10.05 0 5.1 0 0 Z " fill="#F5F5F5" transform="translate(215,443)"/>
<path d="M0 0 C4.95 0 9.9 0 15 0 C15 9.57 15 19.14 15 29 C10.05 29 5.1 29 0 29 C0 19.43 0 9.86 0 0 Z " fill="#FAFAFA" transform="translate(488,400)"/>
<path d="M0 0 C4.95 0 9.9 0 15 0 C15 9.57 15 19.14 15 29 C10.05 29 5.1 29 0 29 C0 19.43 0 9.86 0 0 Z " fill="#FAFAFA" transform="translate(301,400)"/>
<path d="M0 0 C9.57 0 19.14 0 29 0 C29 4.95 29 9.9 29 15 C19.43 15 9.86 15 0 15 C0 10.05 0 5.1 0 0 Z " fill="#050505" transform="translate(474,270)"/>
<path d="M0 0 C9.57 0 19.14 0 29 0 C29 4.95 29 9.9 29 15 C19.43 15 9.86 15 0 15 C0 10.05 0 5.1 0 0 Z " fill="#FAFAFA" transform="translate(301,54)"/>
<path d="M0 0 C9.24 0 18.48 0 28 0 C28 4.95 28 9.9 28 15 C18.76 15 9.52 15 0 15 C0 10.05 0 5.1 0 0 Z " fill="#FAFAFA" transform="translate(100,155)"/>
<path d="M0 0 C4.95 0 9.9 0 15 0 C15 9.24 15 18.48 15 28 C10.05 28 5.1 28 0 28 C0 18.76 0 9.52 0 0 Z " fill="#050505" transform="translate(344,98)"/>
<path d="M0 0 C4.62 0 9.24 0 14 0 C14 9.57 14 19.14 14 29 C9.38 29 4.76 29 0 29 C0 19.43 0 9.86 0 0 Z " fill="#020202" transform="translate(546,414)"/>
<path d="M0 0 C4.62 0 9.24 0 14 0 C14 9.57 14 19.14 14 29 C9.38 29 4.76 29 0 29 C0 19.43 0 9.86 0 0 Z " fill="#020202" transform="translate(71,414)"/>
<path d="M0 0 C4.62 0 9.24 0 14 0 C14 9.57 14 19.14 14 29 C9.38 29 4.76 29 0 29 C0 19.43 0 9.86 0 0 Z " fill="#000000" transform="translate(42,299)"/>
<path d="M0 0 C4.62 0 9.24 0 14 0 C14 9.57 14 19.14 14 29 C9.38 29 4.76 29 0 29 C0 19.43 0 9.86 0 0 Z " fill="#FCFCFC" transform="translate(388,285)"/>
<path d="M0 0 C9.57 0 19.14 0 29 0 C29 4.62 29 9.24 29 14 C19.43 14 9.86 14 0 14 C0 9.38 0 4.76 0 0 Z " fill="#FEFEFE" transform="translate(474,256)"/>
<path d="M0 0 C4.62 0 9.24 0 14 0 C14 9.57 14 19.14 14 29 C9.38 29 4.76 29 0 29 C0 19.43 0 9.86 0 0 Z " fill="#020202" transform="translate(316,213)"/>
<path d="M0 0 C4.62 0 9.24 0 14 0 C14 9.57 14 19.14 14 29 C9.38 29 4.76 29 0 29 C0 19.43 0 9.86 0 0 Z " fill="#F9F9F9" transform="translate(287,198)"/>
<path d="M0 0 C4.62 0 9.24 0 14 0 C14 9.57 14 19.14 14 29 C9.38 29 4.76 29 0 29 C0 19.43 0 9.86 0 0 Z " fill="#FEFEFE" transform="translate(388,112)"/>
<path d="M0 0 C9.57 0 19.14 0 29 0 C29 4.62 29 9.24 29 14 C19.43 14 9.86 14 0 14 C0 9.38 0 4.76 0 0 Z " fill="#020202" transform="translate(344,69)"/>
<path d="M0 0 C4.62 0 9.24 0 14 0 C14 9.57 14 19.14 14 29 C9.38 29 4.76 29 0 29 C0 19.43 0 9.86 0 0 Z " fill="#020202" transform="translate(244,69)"/>
<path d="M0 0 C4.62 0 9.24 0 14 0 C14 9.24 14 18.48 14 28 C9.38 28 4.76 28 0 28 C0 18.76 0 9.52 0 0 Z " fill="#000000" transform="translate(143,530)"/>
<path d="M0 0 C4.62 0 9.24 0 14 0 C14 9.24 14 18.48 14 28 C9.38 28 4.76 28 0 28 C0 18.76 0 9.52 0 0 Z " fill="#FEFEFE" transform="translate(388,458)"/>
<path d="M0 0 C9.24 0 18.48 0 28 0 C28 4.62 28 9.24 28 14 C18.76 14 9.52 14 0 14 C0 9.38 0 4.76 0 0 Z " fill="#000000" transform="translate(28,429)"/>
<path d="M0 0 C4.62 0 9.24 0 14 0 C14 9.24 14 18.48 14 28 C9.38 28 4.76 28 0 28 C0 18.76 0 9.52 0 0 Z " fill="#000000" transform="translate(330,242)"/>
<path d="M0 0 C4.62 0 9.24 0 14 0 C14 9.24 14 18.48 14 28 C9.38 28 4.76 28 0 28 C0 18.76 0 9.52 0 0 Z " fill="#FEFEFE" transform="translate(244,242)"/>
<path d="M0 0 C9.24 0 18.48 0 28 0 C28 4.62 28 9.24 28 14 C18.76 14 9.52 14 0 14 C0 9.38 0 4.76 0 0 Z " fill="#000000" transform="translate(460,170)"/>
<path d="M0 0 C4.62 0 9.24 0 14 0 C14 9.24 14 18.48 14 28 C9.38 28 4.76 28 0 28 C0 18.76 0 9.52 0 0 Z " fill="#000000" transform="translate(143,98)"/>
<path d="M0 0 C4.95 0 9.9 0 15 0 C15 4.95 15 9.9 15 15 C10.05 15 5.1 15 0 15 C0 10.05 0 5.1 0 0 Z " fill="#F5F5F5" transform="translate(157,486)"/>
<path d="M0 0 C4.95 0 9.9 0 15 0 C15 4.95 15 9.9 15 15 C10.05 15 5.1 15 0 15 C0 10.05 0 5.1 0 0 Z " fill="#F5F5F5" transform="translate(488,371)"/>
<path d="M0 0 C4.95 0 9.9 0 15 0 C15 4.95 15 9.9 15 15 C10.05 15 5.1 15 0 15 C0 10.05 0 5.1 0 0 Z " fill="#090909" transform="translate(373,371)"/>
<path d="M0 0 C4.95 0 9.9 0 15 0 C15 4.95 15 9.9 15 15 C10.05 15 5.1 15 0 15 C0 10.05 0 5.1 0 0 Z " fill="#090909" transform="translate(344,371)"/>
<path d="M0 0 C4.95 0 9.9 0 15 0 C15 4.95 15 9.9 15 15 C10.05 15 5.1 15 0 15 C0 10.05 0 5.1 0 0 Z " fill="#090909" transform="translate(56,342)"/>
<path d="M0 0 C4.95 0 9.9 0 15 0 C15 4.95 15 9.9 15 15 C10.05 15 5.1 15 0 15 C0 10.05 0 5.1 0 0 Z " fill="#F5F5F5" transform="translate(229,270)"/>
<path d="M0 0 C4.95 0 9.9 0 15 0 C15 4.95 15 9.9 15 15 C10.05 15 5.1 15 0 15 C0 10.05 0 5.1 0 0 Z " fill="#F5F5F5" transform="translate(200,270)"/>
<path d="M0 0 C4.95 0 9.9 0 15 0 C15 4.95 15 9.9 15 15 C10.05 15 5.1 15 0 15 C0 10.05 0 5.1 0 0 Z " fill="#090909" transform="translate(344,198)"/>
<path d="M0 0 C4.95 0 9.9 0 15 0 C15 4.95 15 9.9 15 15 C10.05 15 5.1 15 0 15 C0 10.05 0 5.1 0 0 Z " fill="#F5F5F5" transform="translate(128,198)"/>
<path d="M0 0 C4.95 0 9.9 0 15 0 C15 4.95 15 9.9 15 15 C10.05 15 5.1 15 0 15 C0 10.05 0 5.1 0 0 Z " fill="#F5F5F5" transform="translate(517,155)"/>
<path d="M0 0 C4.95 0 9.9 0 15 0 C15 4.95 15 9.9 15 15 C10.05 15 5.1 15 0 15 C0 10.05 0 5.1 0 0 Z " fill="#F5F5F5" transform="translate(229,155)"/>
<path d="M0 0 C4.95 0 9.9 0 15 0 C15 4.95 15 9.9 15 15 C10.05 15 5.1 15 0 15 C0 10.05 0 5.1 0 0 Z " fill="#F5F5F5" transform="translate(344,126)"/>
<path d="M0 0 C4.95 0 9.9 0 15 0 C15 4.95 15 9.9 15 15 C10.05 15 5.1 15 0 15 C0 10.05 0 5.1 0 0 Z " fill="#090909" transform="translate(157,126)"/>
<path d="M0 0 C4.95 0 9.9 0 15 0 C15 4.95 15 9.9 15 15 C10.05 15 5.1 15 0 15 C0 10.05 0 5.1 0 0 Z " fill="#F5F5F5" transform="translate(301,83)"/>
<path d="M0 0 C4.95 0 9.9 0 15 0 C15 4.95 15 9.9 15 15 C10.05 15 5.1 15 0 15 C0 10.05 0 5.1 0 0 Z " fill="#F5F5F5" transform="translate(157,54)"/>
<path d="M0 0 C4.95 0 9.9 0 15 0 C15 4.62 15 9.24 15 14 C10.05 14 5.1 14 0 14 C0 9.38 0 4.76 0 0 Z " fill="#040404" transform="translate(301,544)"/>
<path d="M0 0 C4.62 0 9.24 0 14 0 C14 4.95 14 9.9 14 15 C9.38 15 4.76 15 0 15 C0 10.05 0 5.1 0 0 Z " fill="#F9F9F9" transform="translate(503,486)"/>
<path d="M0 0 C4.62 0 9.24 0 14 0 C14 4.95 14 9.9 14 15 C9.38 15 4.76 15 0 15 C0 10.05 0 5.1 0 0 Z " fill="#040404" transform="translate(215,443)"/>
<path d="M0 0 C4.62 0 9.24 0 14 0 C14 4.95 14 9.9 14 15 C9.38 15 4.76 15 0 15 C0 10.05 0 5.1 0 0 Z " fill="#F9F9F9" transform="translate(143,414)"/>
<path d="M0 0 C4.95 0 9.9 0 15 0 C15 4.62 15 9.24 15 14 C10.05 14 5.1 14 0 14 C0 9.38 0 4.76 0 0 Z " fill="#040404" transform="translate(85,400)"/>
<path d="M0 0 C4.95 0 9.9 0 15 0 C15 4.62 15 9.24 15 14 C10.05 14 5.1 14 0 14 C0 9.38 0 4.76 0 0 Z " fill="#050505" transform="translate(56,400)"/>
<path d="M0 0 C4.95 0 9.9 0 15 0 C15 4.62 15 9.24 15 14 C10.05 14 5.1 14 0 14 C0 9.38 0 4.76 0 0 Z " fill="#F9F9F9" transform="translate(200,386)"/>
<path d="M0 0 C4.62 0 9.24 0 14 0 C14 4.95 14 9.9 14 15 C9.38 15 4.76 15 0 15 C0 10.05 0 5.1 0 0 Z " fill="#040404" transform="translate(402,371)"/>
<path d="M0 0 C4.62 0 9.24 0 14 0 C14 4.95 14 9.9 14 15 C9.38 15 4.76 15 0 15 C0 10.05 0 5.1 0 0 Z " fill="#040404" transform="translate(114,371)"/>
<path d="M0 0 C4.95 0 9.9 0 15 0 C15 4.62 15 9.24 15 14 C10.05 14 5.1 14 0 14 C0 9.38 0 4.76 0 0 Z " fill="#F9F9F9" transform="translate(200,328)"/>
<path d="M0 0 C4.95 0 9.9 0 15 0 C15 4.62 15 9.24 15 14 C10.05 14 5.1 14 0 14 C0 9.38 0 4.76 0 0 Z " fill="#040404" transform="translate(229,314)"/>
<path d="M0 0 C4.62 0 9.24 0 14 0 C14 4.95 14 9.9 14 15 C9.38 15 4.76 15 0 15 C0 10.05 0 5.1 0 0 Z " fill="#F9F9F9" transform="translate(258,299)"/>
<path d="M0 0 C4.62 0 9.24 0 14 0 C14 4.95 14 9.9 14 15 C9.38 15 4.76 15 0 15 C0 10.05 0 5.1 0 0 Z " fill="#040404" transform="translate(287,270)"/>
<path d="M0 0 C4.62 0 9.24 0 14 0 C14 4.95 14 9.9 14 15 C9.38 15 4.76 15 0 15 C0 10.05 0 5.1 0 0 Z " fill="#F9F9F9" transform="translate(114,270)"/>
<path d="M0 0 C4.62 0 9.24 0 14 0 C14 4.95 14 9.9 14 15 C9.38 15 4.76 15 0 15 C0 10.05 0 5.1 0 0 Z " fill="#050505" transform="translate(42,270)"/>
<path d="M0 0 C4.95 0 9.9 0 15 0 C15 4.62 15 9.24 15 14 C10.05 14 5.1 14 0 14 C0 9.38 0 4.76 0 0 Z " fill="#040404" transform="translate(373,256)"/>
<path d="M0 0 C4.95 0 9.9 0 15 0 C15 4.62 15 9.24 15 14 C10.05 14 5.1 14 0 14 C0 9.38 0 4.76 0 0 Z " fill="#F9F9F9" transform="translate(229,213)"/>
<path d="M0 0 C4.62 0 9.24 0 14 0 C14 4.95 14 9.9 14 15 C9.38 15 4.76 15 0 15 C0 10.05 0 5.1 0 0 Z " fill="#FAFAFA" transform="translate(532,198)"/>
<path d="M0 0 C4.62 0 9.24 0 14 0 C14 4.95 14 9.9 14 15 C9.38 15 4.76 15 0 15 C0 10.05 0 5.1 0 0 Z " fill="#F9F9F9" transform="translate(431,198)"/>
<path d="M0 0 C4.62 0 9.24 0 14 0 C14 4.95 14 9.9 14 15 C9.38 15 4.76 15 0 15 C0 10.05 0 5.1 0 0 Z " fill="#F9F9F9" transform="translate(402,198)"/>
<path d="M0 0 C4.62 0 9.24 0 14 0 C14 4.95 14 9.9 14 15 C9.38 15 4.76 15 0 15 C0 10.05 0 5.1 0 0 Z " fill="#040404" transform="translate(287,155)"/>
<path d="M0 0 C4.62 0 9.24 0 14 0 C14 4.95 14 9.9 14 15 C9.38 15 4.76 15 0 15 C0 10.05 0 5.1 0 0 Z " fill="#040404" transform="translate(186,126)"/>
<path d="M0 0 C4.95 0 9.9 0 15 0 C15 4.62 15 9.24 15 14 C10.05 14 5.1 14 0 14 C0 9.38 0 4.76 0 0 Z " fill="#F9F9F9" transform="translate(272,112)"/>
<path d="M0 0 C4.95 0 9.9 0 15 0 C15 4.62 15 9.24 15 14 C10.05 14 5.1 14 0 14 C0 9.38 0 4.76 0 0 Z " fill="#050505" transform="translate(200,112)"/>
<path d="M0 0 C4.95 0 9.9 0 15 0 C15 4.62 15 9.24 15 14 C10.05 14 5.1 14 0 14 C0 9.38 0 4.76 0 0 Z " fill="#040404" transform="translate(301,98)"/>
<path d="M0 0 C4.62 0 9.24 0 14 0 C14 4.95 14 9.9 14 15 C9.38 15 4.76 15 0 15 C0 10.05 0 5.1 0 0 Z " fill="#040404" transform="translate(287,83)"/>
<path d="M0 0 C4.95 0 9.9 0 15 0 C15 4.62 15 9.24 15 14 C10.05 14 5.1 14 0 14 C0 9.38 0 4.76 0 0 Z " fill="#040404" transform="translate(373,40)"/>
<path d="M0 0 C4.95 0 9.9 0 15 0 C15 4.62 15 9.24 15 14 C10.05 14 5.1 14 0 14 C0 9.38 0 4.76 0 0 Z " fill="#050505" transform="translate(272,26)"/>
<path d="M0 0 C4.62 0 9.24 0 14 0 C14 4.62 14 9.24 14 14 C9.38 14 4.76 14 0 14 C0 9.38 0 4.76 0 0 Z " fill="#000000" transform="translate(244,544)"/>
<path d="M0 0 C4.62 0 9.24 0 14 0 C14 4.62 14 9.24 14 14 C9.38 14 4.76 14 0 14 C0 9.38 0 4.76 0 0 Z " fill="#000000" transform="translate(402,530)"/>
<path d="M0 0 C4.62 0 9.24 0 14 0 C14 4.62 14 9.24 14 14 C9.38 14 4.76 14 0 14 C0 9.38 0 4.76 0 0 Z " fill="#FEFEFE" transform="translate(186,530)"/>
<path d="M0 0 C4.62 0 9.24 0 14 0 C14 4.62 14 9.24 14 14 C9.38 14 4.76 14 0 14 C0 9.38 0 4.76 0 0 Z " fill="#000000" transform="translate(460,458)"/>
<path d="M0 0 C4.62 0 9.24 0 14 0 C14 4.62 14 9.24 14 14 C9.38 14 4.76 14 0 14 C0 9.38 0 4.76 0 0 Z " fill="#FEFEFE" transform="translate(503,429)"/>
<path d="M0 0 C4.62 0 9.24 0 14 0 C14 4.62 14 9.24 14 14 C9.38 14 4.76 14 0 14 C0 9.38 0 4.76 0 0 Z " fill="#FEFEFE" transform="translate(287,429)"/>
<path d="M0 0 C4.62 0 9.24 0 14 0 C14 4.62 14 9.24 14 14 C9.38 14 4.76 14 0 14 C0 9.38 0 4.76 0 0 Z " fill="#000000" transform="translate(114,400)"/>
<path d="M0 0 C4.62 0 9.24 0 14 0 C14 4.62 14 9.24 14 14 C9.38 14 4.76 14 0 14 C0 9.38 0 4.76 0 0 Z " fill="#FEFEFE" transform="translate(503,386)"/>
<path d="M0 0 C4.62 0 9.24 0 14 0 C14 4.62 14 9.24 14 14 C9.38 14 4.76 14 0 14 C0 9.38 0 4.76 0 0 Z " fill="#FEFEFE" transform="translate(402,386)"/>
<path d="M0 0 C4.62 0 9.24 0 14 0 C14 4.62 14 9.24 14 14 C9.38 14 4.76 14 0 14 C0 9.38 0 4.76 0 0 Z " fill="#000000" transform="translate(388,386)"/>
<path d="M0 0 C4.62 0 9.24 0 14 0 C14 4.62 14 9.24 14 14 C9.38 14 4.76 14 0 14 C0 9.38 0 4.76 0 0 Z " fill="#000000" transform="translate(100,386)"/>
<path d="M0 0 C4.62 0 9.24 0 14 0 C14 4.62 14 9.24 14 14 C9.38 14 4.76 14 0 14 C0 9.38 0 4.76 0 0 Z " fill="#000000" transform="translate(28,386)"/>
<path d="M0 0 C4.62 0 9.24 0 14 0 C14 4.62 14 9.24 14 14 C9.38 14 4.76 14 0 14 C0 9.38 0 4.76 0 0 Z " fill="#000000" transform="translate(71,357)"/>
<path d="M0 0 C4.62 0 9.24 0 14 0 C14 4.62 14 9.24 14 14 C9.38 14 4.76 14 0 14 C0 9.38 0 4.76 0 0 Z " fill="#000000" transform="translate(532,328)"/>
<path d="M0 0 C4.62 0 9.24 0 14 0 C14 4.62 14 9.24 14 14 C9.38 14 4.76 14 0 14 C0 9.38 0 4.76 0 0 Z " fill="#000000" transform="translate(215,328)"/>
<path d="M0 0 C4.62 0 9.24 0 14 0 C14 4.62 14 9.24 14 14 C9.38 14 4.76 14 0 14 C0 9.38 0 4.76 0 0 Z " fill="#000000" transform="translate(546,314)"/>
<path d="M0 0 C4.62 0 9.24 0 14 0 C14 4.62 14 9.24 14 14 C9.38 14 4.76 14 0 14 C0 9.38 0 4.76 0 0 Z " fill="#FEFEFE" transform="translate(532,314)"/>
<path d="M0 0 C4.62 0 9.24 0 14 0 C14 4.62 14 9.24 14 14 C9.38 14 4.76 14 0 14 C0 9.38 0 4.76 0 0 Z " fill="#FEFEFE" transform="translate(287,314)"/>
<path d="M0 0 C4.62 0 9.24 0 14 0 C14 4.62 14 9.24 14 14 C9.38 14 4.76 14 0 14 C0 9.38 0 4.76 0 0 Z " fill="#FEFEFE" transform="translate(244,314)"/>
<path d="M0 0 C4.62 0 9.24 0 14 0 C14 4.62 14 9.24 14 14 C9.38 14 4.76 14 0 14 C0 9.38 0 4.76 0 0 Z " fill="#FEFEFE" transform="translate(172,256)"/>
<path d="M0 0 C4.62 0 9.24 0 14 0 C14 4.62 14 9.24 14 14 C9.38 14 4.76 14 0 14 C0 9.38 0 4.76 0 0 Z " fill="#FEFEFE" transform="translate(186,242)"/>
<path d="M0 0 C4.62 0 9.24 0 14 0 C14 4.62 14 9.24 14 14 C9.38 14 4.76 14 0 14 C0 9.38 0 4.76 0 0 Z " fill="#000000" transform="translate(287,213)"/>
<path d="M0 0 C4.62 0 9.24 0 14 0 C14 4.62 14 9.24 14 14 C9.38 14 4.76 14 0 14 C0 9.38 0 4.76 0 0 Z " fill="#FEFEFE" transform="translate(172,213)"/>
<path d="M0 0 C4.62 0 9.24 0 14 0 C14 4.62 14 9.24 14 14 C9.38 14 4.76 14 0 14 C0 9.38 0 4.76 0 0 Z " fill="#FEFEFE" transform="translate(114,213)"/>
<path d="M0 0 C4.62 0 9.24 0 14 0 C14 4.62 14 9.24 14 14 C9.38 14 4.76 14 0 14 C0 9.38 0 4.76 0 0 Z " fill="#000000" transform="translate(431,184)"/>
<path d="M0 0 C4.62 0 9.24 0 14 0 C14 4.62 14 9.24 14 14 C9.38 14 4.76 14 0 14 C0 9.38 0 4.76 0 0 Z " fill="#FEFEFE" transform="translate(114,184)"/>
<path d="M0 0 C4.62 0 9.24 0 14 0 C14 4.62 14 9.24 14 14 C9.38 14 4.76 14 0 14 C0 9.38 0 4.76 0 0 Z " fill="#000000" transform="translate(71,184)"/>
<path d="M0 0 C4.62 0 9.24 0 14 0 C14 4.62 14 9.24 14 14 C9.38 14 4.76 14 0 14 C0 9.38 0 4.76 0 0 Z " fill="#000000" transform="translate(28,184)"/>
<path d="M0 0 C4.62 0 9.24 0 14 0 C14 4.62 14 9.24 14 14 C9.38 14 4.76 14 0 14 C0 9.38 0 4.76 0 0 Z " fill="#000000" transform="translate(474,141)"/>
<path d="M0 0 C4.62 0 9.24 0 14 0 C14 4.62 14 9.24 14 14 C9.38 14 4.76 14 0 14 C0 9.38 0 4.76 0 0 Z " fill="#FEFEFE" transform="translate(402,141)"/>
<path d="M0 0 C4.62 0 9.24 0 14 0 C14 4.62 14 9.24 14 14 C9.38 14 4.76 14 0 14 C0 9.38 0 4.76 0 0 Z " fill="#FEFEFE" transform="translate(359,141)"/>
<path d="M0 0 C4.62 0 9.24 0 14 0 C14 4.62 14 9.24 14 14 C9.38 14 4.76 14 0 14 C0 9.38 0 4.76 0 0 Z " fill="#FEFEFE" transform="translate(244,141)"/>
<path d="M0 0 C4.62 0 9.24 0 14 0 C14 4.62 14 9.24 14 14 C9.38 14 4.76 14 0 14 C0 9.38 0 4.76 0 0 Z " fill="#000000" transform="translate(287,112)"/>
<path d="M0 0 C4.62 0 9.24 0 14 0 C14 4.62 14 9.24 14 14 C9.38 14 4.76 14 0 14 C0 9.38 0 4.76 0 0 Z " fill="#000000" transform="translate(172,112)"/>
<path d="M0 0 C4.62 0 9.24 0 14 0 C14 4.62 14 9.24 14 14 C9.38 14 4.76 14 0 14 C0 9.38 0 4.76 0 0 Z " fill="#FEFEFE" transform="translate(287,98)"/>
<path d="M0 0 C4.62 0 9.24 0 14 0 C14 4.62 14 9.24 14 14 C9.38 14 4.76 14 0 14 C0 9.38 0 4.76 0 0 Z " fill="#000000" transform="translate(244,26)"/>
</svg>
